<?xml version="1.0" standalone="no"?>
<!DOCTYPE svg PUBLIC "-//W3C//DTD SVG 20010904//EN"
 "http://www.w3.org/TR/2001/REC-SVG-20010904/DTD/svg10.dtd">
<svg version="1.0" xmlns="http://www.w3.org/2000/svg"
 width="225.000000pt" height="225.000000pt" viewBox="0 0 225.000000 225.000000"
 preserveAspectRatio="xMidYMid meet">
<metadata>
Created by potrace 1.10, written by Peter Selinger 2001-2011
</metadata>
<g transform="translate(0.000000,225.000000) scale(0.100000,-0.100000)"
fill="#000000" stroke="none">
<path d="M725 1473 c-101 -22 -132 -92 -76 -171 26 -37 18 -74 -13 -66 -28 7
-41 -9 -50 -59 -7 -38 16 -97 39 -97 5 0 19 -8 30 -17 20 -15 20 -15 -2 -10
-13 3 -23 1 -23 -4 0 -5 5 -9 11 -9 5 0 7 -4 4 -10 -3 -5 -17 -10 -29 -10 -13
0 -29 -7 -36 -15 -18 -21 -4 -65 20 -65 13 0 18 -5 14 -15 -4 -8 -2 -15 4 -15
5 0 10 -27 11 -61 1 -63 15 -89 48 -89 24 0 35 9 55 47 12 23 13 33 5 36 -9 3
-9 8 1 19 10 12 10 18 1 23 -8 6 -7 10 2 16 24 15 26 10 28 -53 1 -33 6 -67
12 -75 14 -16 43 -17 69 -1 15 10 24 10 39 1 22 -14 151 -15 168 -1 7 6 14 5
18 -2 8 -14 48 -13 63 2 7 7 12 20 12 30 0 10 7 18 18 18 9 0 28 6 42 13 55
29 59 28 47 -4 -21 -54 -4 -64 103 -64 78 0 95 3 104 18 14 22 -2 51 -31 55
-25 4 -20 35 10 65 l21 21 15 -24 c9 -13 24 -50 34 -82 15 -48 22 -58 40 -58
33 1 57 24 57 54 0 25 24 84 39 96 13 10 31 50 31 68 0 44 -58 57 -97 20 l-23
-21 -23 21 c-17 16 -36 22 -71 22 -29 0 -45 4 -41 10 4 6 -8 10 -29 10 -19 0
-37 -4 -40 -8 -6 -11 -75 -17 -160 -14 -49 2 -49 2 -30 21 32 29 99 39 289 41
56 1 106 -4 132 -13 24 -8 40 -10 36 -4 -4 6 2 8 16 4 18 -4 20 -3 10 9 -6 8
-37 21 -67 30 -77 23 -226 14 -461 -25 -209 -35 -352 -40 -422 -16 -47 17
-109 60 -109 76 0 6 14 -1 30 -15 67 -55 205 -62 420 -21 329 63 354 67 435
62 88 -5 156 -31 175 -67 20 -37 27 -21 15 33 -8 38 -18 55 -36 64 -13 7 -23
18 -21 24 1 6 -6 8 -19 4 -15 -5 -20 -3 -17 6 3 8 -11 21 -32 31 -19 10 -51
31 -70 47 l-35 29 37 7 c56 11 64 27 37 74 -12 22 -26 38 -30 36 -4 -3 -9 2
-13 10 -13 35 -71 3 -59 -32 3 -7 0 -13 -6 -13 -6 0 -9 -13 -8 -30 2 -25 7
-30 27 -31 l25 0 -24 -10 c-14 -5 -30 -8 -38 -5 -7 3 -15 1 -18 -4 -11 -18
-36 -10 -95 30 -32 22 -66 40 -75 40 -9 0 -13 5 -10 10 4 7 -3 8 -22 4 -39 -9
-44 -13 -101 -64 -54 -50 -139 -104 -162 -105 -9 0 -14 -8 -12 -18 2 -9 -3
-17 -10 -17 -10 0 -12 18 -10 70 4 71 -8 106 -32 97 -6 -3 -12 8 -13 24 -5 62
-29 78 -98 62z m760 -63 c8 0 15 -6 15 -14 0 -8 6 -17 13 -19 6 -3 0 -6 -15
-6 -15 -1 -30 4 -33 9 -4 6 -15 8 -25 5 -10 -3 -21 -1 -25 5 -3 5 0 10 8 10
10 0 13 7 10 20 -3 11 -2 28 2 37 5 15 9 12 20 -14 8 -18 21 -33 30 -33z
m-692 30 c3 -13 0 -20 -8 -20 -10 0 -11 -8 -6 -27 8 -31 48 -44 62 -21 7 10 9
10 10 -2 2 -21 2 -14 -5 -124 l-7 -99 60 7 c34 3 88 9 121 12 33 4 60 11 60
16 0 6 -24 7 -57 4 -47 -5 -53 -4 -33 4 14 6 42 10 63 8 30 -2 44 4 67 25 l29
27 3 -22 c3 -24 47 -40 49 -19 1 6 3 16 4 21 1 6 3 15 4 21 1 7 6 8 14 3 6 -5
24 -9 40 -8 15 0 27 -2 27 -7 0 -4 3 -15 7 -25 4 -11 3 -15 -4 -11 -6 4 -13 2
-15 -5 -2 -6 -15 -13 -28 -15 -13 -2 -27 -8 -31 -15 -4 -6 -11 -8 -17 -4 -6 3
-32 1 -58 -6 -34 -9 -48 -10 -51 -2 -3 8 -19 7 -55 -2 -201 -53 -436 -31 -426
38 4 30 21 32 33 6 20 -45 40 -33 53 30 16 77 16 80 -10 84 -18 2 -25 12 -32
46 -8 38 -6 44 14 62 27 24 39 25 46 6 8 -20 34 -8 34 15 0 26 36 25 43 -1z
m469 -108 c74 -46 89 -50 108 -27 18 22 27 19 79 -23 25 -22 81 -56 125 -78
91 -45 88 -56 -7 -20 -58 22 -66 23 -69 9 -2 -13 -10 -9 -33 17 -67 73 -65 72
-81 59 -8 -6 -14 -19 -15 -28 0 -9 -13 -26 -30 -39 -31 -25 -38 -19 -14 12 19
25 19 36 0 36 -8 0 -15 4 -15 9 0 5 -14 20 -31 32 l-31 22 11 -21 c17 -31 -2
-28 -42 8 -39 34 -52 38 -38 13 12 -24 12 -103 0 -103 -5 0 -9 15 -9 34 0 19
-4 38 -10 41 -5 3 -10 18 -10 33 l-1 27 -19 -24 c-11 -13 -20 -36 -20 -52 0
-22 -7 -32 -31 -44 -17 -9 -33 -14 -36 -11 -3 3 2 8 11 12 9 3 16 15 16 26 0
17 -3 18 -15 8 -8 -7 -24 -10 -34 -7 -14 3 -25 -3 -35 -18 -9 -13 -38 -31 -66
-40 -61 -20 -80 -12 -24 11 21 9 50 26 64 39 14 13 42 31 62 39 20 9 58 40 85
70 47 54 48 55 68 37 11 -10 50 -36 87 -59z m-167 -298 c14 -6 13 -8 -7 -19
-31 -16 -58 -7 -32 12 21 15 18 15 39 7z m-325 -54 c0 -16 -7 -20 -35 -20
l-35 0 0 -90 c0 -83 -1 -90 -20 -90 -19 0 -20 7 -20 90 l0 90 -35 0 c-28 0
-35 4 -35 20 0 19 7 20 90 20 83 0 90 -1 90 -20z m160 7 c19 -9 26 -22 28 -50
3 -32 -1 -39 -28 -56 l-31 -19 30 -35 c37 -41 38 -47 9 -47 -16 0 -32 15 -53
45 -39 58 -54 58 -47 0 4 -41 3 -45 -17 -45 -20 0 -21 4 -21 110 l0 110 53 0
c28 0 63 -6 77 -13z m110 -97 c0 -103 -1 -110 -20 -110 -19 0 -20 7 -20 110 0
103 1 110 20 110 19 0 20 -7 20 -110z m173 99 c30 -16 37 -28 37 -66 0 -40
-30 -63 -82 -63 -38 0 -38 0 -38 -40 0 -33 -3 -40 -20 -40 -19 0 -20 7 -20
110 l0 110 51 0 c28 0 60 -5 72 -11z m237 -5 c0 -8 -27 -49 -61 -90 l-60 -74
60 0 c54 0 61 -2 61 -20 0 -18 -7 -20 -85 -20 -105 0 -107 6 -30 105 l55 70
-55 3 c-47 3 -55 6 -55 22 0 18 7 20 85 20 71 0 85 -3 85 -16z m80 -29 c14
-25 28 -45 31 -45 4 0 19 20 33 45 17 29 34 45 46 45 11 0 20 -2 20 -5 0 -2
-18 -32 -40 -66 -31 -48 -40 -72 -40 -106 0 -36 -3 -43 -20 -43 -17 0 -20 7
-20 48 0 33 -7 58 -23 82 -64 95 -62 90 -35 90 18 0 29 -11 48 -45z"/>
<path d="M770 1338 c0 -4 8 -12 18 -17 16 -10 16 -10 0 -11 -15 0 -15 -3 -2
-27 7 -16 14 -47 14 -70 0 -35 14 -64 24 -52 2 2 6 43 9 90 l6 87 -35 4 c-19
2 -34 1 -34 -4z"/>
<path d="M729 1227 c-9 -12 -19 -32 -23 -44 -6 -19 -2 -22 34 -28 23 -4 43 -5
45 -3 5 5 -28 98 -35 98 -3 0 -12 -11 -21 -23z"/>
<path d="M833 930 c0 -27 3 -30 31 -30 40 0 59 13 54 36 -2 14 -13 20 -44 22
-39 3 -41 2 -41 -28z"/>
<path d="M1130 930 c0 -30 2 -31 38 -28 32 3 37 6 37 28 0 22 -5 25 -37 28
-36 3 -38 2 -38 -28z"/>
</g>
</svg>
