<svg version="1.1" id="Layer_1" xmlns="http://www.w3.org/2000/svg" xmlns:xlink="http://www.w3.org/1999/xlink" x="0px" y="0px"
	 width="100%" viewBox="0 0 317 88" enable-background="new 0 0 317 88" xml:space="preserve">
<path fill="#FEFEFE" opacity="1.000000" stroke="none" 
	d="
M129.000000,1.000000 
	C191.940826,1.000000 254.881653,1.000000 317.911255,1.000000 
	C317.911255,30.246365 317.911255,59.493092 317.911255,89.000000 
	C255.312683,89.000000 192.625000,89.000000 129.469299,88.531342 
	C129.016251,68.717796 129.031250,49.372913 129.508148,30.004845 
	C134.252991,29.981665 138.535934,29.981665 143.412994,29.981665 
	C143.412994,43.966175 143.412994,57.354034 143.412994,70.820038 
	C146.266144,70.820038 148.499557,70.820038 151.313538,70.820038 
	C151.313538,57.109650 151.313538,43.726658 151.313538,29.747797 
	C156.448029,29.747797 160.997620,29.747797 165.798096,29.747797 
	C165.681351,27.211691 165.593628,25.305742 165.490341,23.061945 
	C152.947357,23.061945 140.983322,23.061945 129.012329,22.638771 
	C128.948120,20.808537 128.890884,19.401480 128.897400,17.531124 
	C128.974121,11.711884 128.987061,6.355942 129.000000,1.000000 
M235.360336,34.733955 
	C229.604797,32.989799 224.241165,33.685406 219.381561,37.573647 
	C218.611298,32.003433 214.820099,34.736660 211.737961,34.248669 
	C211.737961,51.275257 211.737961,67.989113 211.737961,84.807304 
	C214.208221,84.807304 216.434448,84.807304 219.038177,84.807304 
	C219.038177,81.983574 219.038177,79.512321 219.038177,77.041069 
	C219.038177,74.469704 219.038177,71.898338 219.038177,69.943855 
	C223.615662,70.560387 227.687531,71.812805 231.628860,71.486786 
	C238.870728,70.887756 243.531647,65.649567 244.863907,57.974529 
	C246.707260,47.355297 243.591492,39.159760 235.360336,34.733955 
M300.231842,47.674690 
	C298.731415,51.649994 297.230957,55.625294 295.359558,60.583431 
	C292.409424,53.003067 289.797668,46.381214 287.254883,39.732971 
	C284.788147,33.283642 284.601288,33.160736 277.154266,34.865231 
	C281.406189,45.733852 285.743164,56.516483 289.777069,67.411354 
	C290.502014,69.369362 290.500610,71.936523 289.931763,73.969872 
	C288.192200,80.188126 283.227234,79.115906 278.708527,78.164688 
	C275.890442,84.070953 276.696655,85.570572 282.732117,85.880104 
	C288.804138,86.191513 293.495178,83.921555 295.995911,78.143837 
	C297.911285,73.718712 299.685303,69.230179 301.432617,64.735023 
	C305.324768,54.721809 309.160828,44.686787 313.020660,34.658367 
	C307.340363,32.900707 304.258057,34.594147 303.069122,39.924026 
	C302.530365,42.339237 301.418274,44.626556 300.231842,47.674690 
M271.382446,45.862297 
	C273.754822,42.426155 277.392883,39.378799 275.053864,34.472122 
	C266.330902,34.472122 257.777374,34.472122 249.228043,34.472122 
	C249.228043,36.779167 249.228043,38.697308 249.228043,41.071274 
	C254.729309,41.071274 259.946899,41.071274 266.003143,41.071274 
	C260.455078,48.541843 255.271622,55.186634 250.509750,62.120930 
	C248.913834,64.444931 248.392822,67.507088 247.197479,70.724358 
	C257.658234,70.724358 266.668213,70.724358 275.661316,70.724358 
	C275.661316,68.479546 275.661316,66.696243 275.661316,64.123566 
	C269.837158,64.123566 264.223206,64.123566 257.819427,64.123566 
	C262.648834,57.626987 266.803619,52.037975 271.382446,45.862297 
M175.590103,50.359917 
	C176.447205,43.630981 178.415512,40.941788 183.323074,41.738159 
	C188.551971,42.586670 189.753006,40.306217 189.856995,35.873718 
	C184.797226,32.711494 180.048019,34.011299 175.350723,36.788174 
	C175.434769,36.264244 175.518814,35.740314 175.602844,35.216381 
	C173.279053,34.764580 170.955246,34.312775 168.186615,33.774483 
	C168.186615,46.669796 168.186615,58.687664 168.186615,70.846191 
	C170.568604,70.846191 172.626816,70.846191 175.473770,70.846191 
	C175.473770,64.104088 175.473770,57.668339 175.590103,50.359917 
M198.451248,34.044113 
	C196.996002,34.867859 194.295105,35.660793 194.273865,36.520004 
	C193.991669,47.927486 194.085480,59.344269 194.085480,70.886757 
	C196.990433,70.886757 199.222000,70.886757 201.946457,70.886757 
	C201.946457,59.131432 201.995270,47.700592 201.835190,36.272675 
	C201.824677,35.521187 200.218155,34.792061 198.451248,34.044113 
M200.490326,21.050531 
	C198.421997,21.422668 195.891174,21.213863 194.443878,22.366079 
	C193.437119,23.167574 193.277588,26.127014 193.933746,27.584959 
	C194.479828,28.798309 196.746780,29.786953 198.285233,29.836967 
	C199.612640,29.880121 201.994720,28.605938 202.131653,27.657351 
	C202.415741,25.689390 201.519012,23.550976 200.490326,21.050531 
z"/>
<path fill="#8865A6" opacity="1.000000" stroke="none" 
	d="
M128.531342,1.000000 
	C128.987061,6.355942 128.974121,11.711884 128.440506,17.533041 
	C121.639824,18.000238 115.352425,17.816935 109.082375,18.067667 
	C104.715340,18.242302 100.381676,19.291737 96.015671,19.441259 
	C91.258133,19.604189 86.465919,18.915655 81.720825,19.177773 
	C80.370117,19.252386 79.130943,21.345964 77.616074,22.400986 
	C77.259499,22.185205 77.127472,22.082129 76.863777,21.754154 
	C76.429314,21.371193 76.126518,21.213123 75.532608,20.915672 
	C74.392944,20.820755 73.121658,20.520098 72.760490,20.962484 
	C68.649544,25.997805 63.936440,30.246336 57.837334,33.317459 
	C57.148056,34.840004 56.613758,36.059422 56.079456,37.278835 
	C56.619877,37.539352 57.160301,37.799870 57.700722,38.060383 
	C58.479679,36.561325 59.258640,35.062263 60.344563,33.464905 
	C62.115463,33.356491 63.579399,33.346378 65.142220,33.478191 
	C65.405441,33.789192 65.599525,33.910812 65.889420,34.220345 
	C65.955505,34.455719 66.023735,34.939884 66.023880,35.182220 
	C66.111763,35.713554 66.199493,36.002560 66.287224,36.291565 
	C66.529480,35.978596 66.771736,35.665630 67.386627,35.260216 
	C69.439651,32.168552 71.120033,29.169338 73.400551,25.098989 
	C73.541908,26.998745 73.586571,27.598949 73.453522,28.420532 
	C73.973015,29.301497 74.670219,29.961081 75.367416,30.620663 
	C75.939240,29.543900 76.511055,28.467134 77.410812,27.550335 
	C79.166206,28.778708 81.129608,31.064093 81.931099,30.711123 
	C86.055115,28.894936 86.959557,32.566238 89.106796,34.387154 
	C89.319817,34.728458 89.494431,34.869381 89.771141,35.266617 
	C89.834656,35.987598 89.835831,36.403015 89.552841,36.857590 
	C88.877693,37.255001 88.486732,37.613255 87.864937,38.117325 
	C87.777954,38.707737 87.921799,39.152336 88.065643,39.596931 
	C88.380157,39.116066 88.694664,38.635204 89.246445,38.041969 
	C89.724869,37.691574 89.966019,37.453545 90.561005,37.145622 
	C91.569130,36.385838 92.423584,35.799694 92.844025,34.988579 
	C94.977089,30.873468 95.890915,30.749313 98.824989,34.366756 
	C100.262939,36.139614 101.693497,37.918472 103.081131,39.939407 
	C103.034859,40.184200 102.984329,40.679890 102.527931,40.758636 
	C93.519440,41.876518 84.961197,42.867779 76.416718,43.966152 
	C63.960930,45.567307 51.537201,47.460400 39.050194,48.747879 
	C35.702961,49.093002 32.175663,47.691723 28.343433,47.024700 
	C29.190037,48.285919 29.718172,49.072704 29.906536,50.034248 
	C29.040396,52.041157 28.514025,53.873314 27.586006,55.782974 
	C26.083599,56.419960 24.982843,56.979435 23.882088,57.538914 
	C24.035484,57.931656 24.188883,58.324398 24.342279,58.717140 
	C26.085260,58.954578 27.828243,59.192020 30.148573,59.508110 
	C30.148573,63.692448 30.042192,67.788834 30.222366,71.872581 
	C30.268185,72.911110 31.224445,73.909470 31.762383,74.926285 
	C32.465599,73.901520 33.713470,72.908569 33.775509,71.846359 
	C34.013821,67.765923 33.872036,63.663300 33.872036,60.167599 
	C36.067291,58.097855 40.497948,60.985237 40.433456,56.173813 
	C41.302597,56.361118 41.647083,56.450279 41.916046,56.894909 
	C42.034283,63.104015 42.228043,68.957657 42.064949,75.069679 
	C41.472069,79.885376 41.236031,84.442688 41.000000,89.000000 
	C27.689489,89.000000 14.378978,89.000000 1.034233,89.000000 
	C1.034233,59.739731 1.034233,30.479412 1.034233,1.000000 
	C43.353977,1.000000 85.708328,1.000000 128.531342,1.000000 
M51.503052,44.568127 
	C54.182205,44.289314 56.861355,44.010502 59.540508,43.731689 
	C59.448250,43.113857 59.355995,42.496025 59.263741,41.878193 
	C56.576248,42.247990 53.888760,42.617786 50.774029,42.471531 
	C48.068810,41.640900 45.363594,40.810272 42.691380,39.134613 
	C42.396278,36.181686 42.101173,33.228760 42.160023,29.549002 
	C42.423958,27.998388 42.687893,26.447773 42.676872,24.220486 
	C42.276623,22.312693 42.010262,20.362844 41.428856,18.511959 
	C41.044025,17.286877 40.207363,16.203728 39.572979,15.057036 
	C38.053204,18.592161 34.300373,16.688858 32.133541,18.140224 
	C30.733963,19.077671 29.313686,21.750877 29.688644,23.176491 
	C30.326477,25.601559 32.371845,27.656424 34.322960,30.622726 
	C34.000538,32.567059 33.474705,35.738052 32.400345,39.242496 
	C28.323687,42.987690 29.625879,36.753471 27.616165,36.663849 
	C25.145161,40.011837 25.381739,42.256851 29.441248,42.855957 
	C36.531506,43.902344 43.807056,43.693188 51.503052,44.568127 
M63.492943,40.006870 
	C62.738018,40.455559 61.983097,40.904247 61.228176,41.352940 
	C61.557873,41.839367 61.972946,42.781586 62.203434,42.738411 
	C63.723774,42.453613 65.204399,41.956802 66.697968,41.529095 
	C66.617142,41.167309 66.536316,40.805523 66.455498,40.443737 
	C65.722099,40.295765 64.988693,40.147789 63.492943,40.006870 
M51.004128,37.316135 
	C50.079037,37.833923 49.153946,38.351715 48.228859,38.869503 
	C48.600246,39.294273 48.971630,39.719044 49.343018,40.143814 
	C50.025146,39.355793 50.707275,38.567776 51.004128,37.316135 
M46.144085,23.005522 
	C45.630344,23.866022 45.116604,24.726522 44.602863,25.587025 
	C45.036694,25.744675 45.470524,25.902327 45.904354,26.059978 
	C46.174671,25.005028 46.444988,23.950077 46.144085,23.005522 
M45.079601,31.362574 
	C45.449711,31.614962 45.819817,31.867352 46.189926,32.119740 
	C46.347260,31.711330 46.504589,31.302919 46.661919,30.894510 
	C46.186066,30.864199 45.710209,30.833887 45.079601,31.362574 
M25.940590,45.270599 
	C25.965010,45.613663 25.989431,45.956730 26.013851,46.299789 
	C26.254766,46.227859 26.495682,46.155930 26.736597,46.084000 
	C26.617168,45.833817 26.497738,45.583633 25.940590,45.270599 
M46.475697,35.378265 
	C46.530865,35.162636 46.586037,34.947010 46.641209,34.731380 
	C46.505314,34.870018 46.369419,35.008656 46.475697,35.378265 
M24.517210,42.410706 
	C24.517210,42.410706 24.584715,42.523396 24.517210,42.410706 
M53.407841,36.481472 
	C53.407841,36.481472 53.520405,36.413883 53.407841,36.481472 
z"/>
<path fill="#8C68A8" opacity="1.000000" stroke="none" 
	d="
M41.991570,56.539436 
	C41.647083,56.450279 41.302597,56.361118 40.455917,56.161125 
	C39.953724,56.050285 39.940113,56.094036 39.997677,55.702309 
	C40.408031,54.026917 40.760826,52.743252 41.548164,51.445225 
	C52.661076,50.379631 63.371967,49.581722 74.009895,48.215626 
	C88.627174,46.338528 103.180389,41.689068 118.556496,48.871510 
	C117.010414,45.990536 115.947632,44.010159 115.186897,42.020798 
	C115.602997,41.289509 115.990196,40.029835 115.789070,39.927601 
	C113.658760,38.844769 111.434845,37.946098 108.972351,36.766350 
	C104.107979,33.419754 99.507973,30.303503 94.776161,27.097961 
	C92.067863,30.606791 89.357529,30.570940 86.153244,27.977757 
	C83.588287,25.901964 80.626366,24.316673 77.840622,22.513691 
	C79.130943,21.345964 80.370117,19.252386 81.720825,19.177773 
	C86.465919,18.915655 91.258133,19.604189 96.015671,19.441259 
	C100.381676,19.291737 104.715340,18.242302 109.082375,18.067667 
	C115.352425,17.816935 121.639824,18.000238 128.376724,17.996338 
	C128.890884,19.401480 128.948120,20.808537 129.003448,23.071419 
	C129.016434,25.960836 129.031342,27.994431 129.046249,30.028027 
	C129.031250,49.372913 129.016251,68.717796 129.000641,88.531342 
	C99.979103,89.000000 70.958214,89.000000 41.468658,89.000000 
	C41.236031,84.442688 41.472069,79.885376 42.442726,75.118958 
	C49.039169,74.844673 43.773510,69.099953 46.888580,67.632469 
	C50.291946,69.360939 50.374115,75.447426 55.986492,74.807587 
	C55.099304,72.548409 54.351624,70.644478 53.729294,68.284355 
	C53.890015,67.514755 53.925385,67.201340 54.131035,66.642426 
	C55.169487,65.590309 56.037651,64.783699 57.277618,63.840881 
	C58.414375,63.467812 59.179337,63.230961 59.999481,63.393471 
	C60.135143,66.543037 59.983524,69.330261 60.413288,72.024757 
	C60.579166,73.064774 62.064838,73.894295 63.199959,74.816635 
	C63.553989,74.523872 63.657269,74.234192 63.805367,73.482819 
	C63.823341,67.699188 63.796501,62.377254 63.785416,56.800133 
	C63.520355,56.409103 63.239536,56.273266 62.605568,56.095608 
	C61.542770,57.029331 60.833118,58.004871 59.851471,59.074654 
	C58.676270,59.124413 57.773064,59.079926 56.585079,58.813919 
	C52.015621,54.528423 46.954590,55.875496 41.991570,56.539436 
M77.772476,56.097874 
	C74.685745,56.097874 71.599014,56.097874 68.110512,56.097874 
	C68.110512,59.984020 67.935333,63.294022 68.164131,66.575867 
	C68.358650,69.366165 68.515381,74.268990 69.562576,74.514793 
	C73.523521,75.444534 70.913872,71.223724 72.207001,69.688461 
	C72.314102,69.561302 72.431015,69.442398 72.543663,69.320122 
	C76.739357,68.509857 81.450806,68.275063 82.573608,62.930870 
	C83.232262,59.795910 81.731369,57.452927 77.772476,56.097874 
M88.758110,55.959057 
	C87.540146,56.460682 86.322182,56.962311 85.104218,57.463940 
	C86.289780,57.994724 87.434631,58.814312 88.670464,58.988548 
	C90.519897,59.249283 92.433296,59.056293 95.016235,59.056293 
	C91.024750,64.495552 87.618980,69.136642 83.747192,74.412781 
	C90.217102,74.412781 95.001877,74.412781 99.786644,74.412781 
	C99.852646,73.825165 99.918648,73.237541 99.984650,72.649925 
	C96.956779,72.224747 93.928902,71.799568 90.232704,71.280540 
	C93.891312,66.212204 97.161636,61.681759 101.292984,55.958527 
	C96.244186,55.958527 92.964714,55.958527 88.758110,55.959057 
M110.939278,62.482613 
	C109.620544,61.431602 108.281677,60.404675 106.988350,59.323284 
	C105.478279,58.060692 104.007957,56.750565 102.520401,55.461056 
	C102.172295,55.813107 101.824188,56.165157 101.476074,56.517208 
	C104.098923,62.059292 109.483208,66.546715 108.245934,73.602600 
	C108.187622,73.935165 109.724937,74.945961 109.842201,74.846085 
	C110.593628,74.206085 111.444916,73.434677 111.726852,72.537804 
	C112.648178,69.607025 112.972755,66.436867 114.229401,63.678886 
	C115.331436,61.260231 117.379868,59.272800 119.263481,56.756668 
	C113.500565,54.767025 113.484200,59.771999 110.939278,62.482613 
z"/>
<path fill="#8D8D8D" opacity="1.000000" stroke="none" 
	d="
M235.740540,34.855434 
	C243.591492,39.159760 246.707260,47.355297 244.863907,57.974529 
	C243.531647,65.649567 238.870728,70.887756 231.628860,71.486786 
	C227.687531,71.812805 223.615662,70.560387 219.038177,69.943855 
	C219.038177,71.898338 219.038177,74.469704 219.038177,77.041069 
	C219.038177,79.512321 219.038177,81.983574 219.038177,84.807304 
	C216.434448,84.807304 214.208221,84.807304 211.737961,84.807304 
	C211.737961,67.989113 211.737961,51.275257 211.737961,34.248669 
	C214.820099,34.736660 218.611298,32.003433 219.381561,37.573647 
	C224.241165,33.685406 229.604797,32.989799 235.740540,34.855434 
M219.028107,42.103703 
	C217.696259,40.363895 216.364410,38.624084 214.533600,36.232468 
	C214.533600,52.360001 214.533600,67.517998 214.533600,82.675987 
	C215.020828,82.748589 215.508072,82.821190 215.995300,82.893784 
	C216.264893,81.349358 216.611694,79.813820 216.790741,78.258972 
	C217.574570,71.452126 218.309784,64.639694 219.670990,58.351841 
	C223.602859,66.066956 228.473297,67.110596 235.369003,61.782219 
	C236.080444,61.232487 237.065262,61.036507 237.845490,61.703312 
	C234.608521,68.376450 228.584137,66.934464 222.951660,66.324203 
	C222.756836,66.115601 222.561996,65.906998 222.367172,65.698395 
	C222.248459,66.141930 222.129730,66.585464 222.361542,67.721962 
	C234.533966,72.031219 242.530624,66.703140 242.819199,53.819557 
	C242.891968,50.571407 242.476456,47.097286 241.346039,44.078762 
	C238.321930,36.003536 228.944946,33.505745 222.416397,38.913258 
	C225.689301,38.913258 228.804382,38.664589 231.855133,39.000420 
	C233.899246,39.225441 236.531555,39.824688 233.950195,42.568516 
	C229.304504,40.074486 224.897766,39.741859 220.516891,44.331619 
	C220.388290,44.692799 220.259705,45.053978 220.071594,46.217209 
	C219.749420,50.107098 219.427246,53.996983 218.140167,57.765198 
	C215.564423,52.220081 216.630753,47.077221 220.172729,41.996140 
	C220.060349,42.044758 219.947983,42.093380 219.028107,42.103703 
z"/>
<path fill="#929292" opacity="1.000000" stroke="none" 
	d="
M300.399048,47.323296 
	C301.418274,44.626556 302.530365,42.339237 303.069122,39.924026 
	C304.258057,34.594147 307.340363,32.900707 313.020660,34.658367 
	C309.160828,44.686787 305.324768,54.721809 301.432617,64.735023 
	C299.685303,69.230179 297.911285,73.718712 295.995911,78.143837 
	C293.495178,83.921555 288.804138,86.191513 282.732117,85.880104 
	C276.696655,85.570572 275.890442,84.070953 278.708527,78.164688 
	C283.227234,79.115906 288.192200,80.188126 289.931763,73.969872 
	C290.500610,71.936523 290.502014,69.369362 289.777069,67.411354 
	C285.743164,56.516483 281.406189,45.733852 277.154266,34.865231 
	C284.601288,33.160736 284.788147,33.283642 287.254883,39.732971 
	C289.797668,46.381214 292.409424,53.003067 295.359558,60.583431 
	C297.230957,55.625294 298.731415,51.649994 300.399048,47.323296 
M287.755310,47.766666 
	C285.574280,44.345539 285.979431,39.362797 281.630096,37.189415 
	C281.325745,38.173172 281.460663,38.931843 281.734955,39.636253 
	C285.350494,48.922276 289.015045,58.189323 292.606201,67.484734 
	C295.229980,74.276253 290.462341,81.148567 283.174805,81.210014 
	C282.149963,81.218658 281.126617,81.398750 280.102570,81.499474 
	C281.277588,82.957779 282.568604,83.444084 283.859924,83.444725 
	C289.390686,83.447487 292.777893,80.419487 294.694824,75.451904 
	C299.299072,63.520283 303.922424,51.595959 308.478027,39.645802 
	C308.757324,38.913132 308.514282,37.981342 308.514282,37.142204 
	C308.086945,37.003941 307.659607,36.865681 307.232269,36.727421 
	C303.535645,46.174618 299.839050,55.621815 296.142426,65.069008 
	C295.578949,65.021027 295.015472,64.973045 294.451996,64.925056 
	C292.297607,59.451576 290.143250,53.978092 287.755310,47.766666 
z"/>
<path fill="#929292" opacity="1.000000" stroke="none" 
	d="
M271.170410,46.155632 
	C266.803619,52.037975 262.648834,57.626987 257.819427,64.123566 
	C264.223206,64.123566 269.837158,64.123566 275.661316,64.123566 
	C275.661316,66.696243 275.661316,68.479546 275.661316,70.724358 
	C266.668213,70.724358 257.658234,70.724358 247.197479,70.724358 
	C248.392822,67.507088 248.913834,64.444931 250.509750,62.120930 
	C255.271622,55.186634 260.455078,48.541843 266.003143,41.071274 
	C259.946899,41.071274 254.729309,41.071274 249.228043,41.071274 
	C249.228043,38.697308 249.228043,36.779167 249.228043,34.472122 
	C257.777374,34.472122 266.330902,34.472122 275.053864,34.472122 
	C277.392883,39.378799 273.754822,42.426155 271.170410,46.155632 
M262.927307,49.417461 
	C258.639130,55.492615 253.419144,60.970230 249.641312,68.163849 
	C258.170166,68.163849 265.421875,68.163849 272.673553,68.163849 
	C272.663605,67.619225 272.653625,67.074593 272.643646,66.529968 
	C266.525452,66.529968 260.407257,66.529968 253.433548,66.529968 
	C259.888947,55.836605 268.162079,47.840851 273.821350,37.255161 
	C265.711395,37.255161 258.775452,37.255161 251.839523,37.255161 
	C251.826035,37.733913 251.812546,38.212669 251.799057,38.691422 
	C257.504364,38.691422 263.209656,38.691422 268.914948,38.691422 
	C269.120087,39.185211 269.325195,39.679001 269.530334,40.172791 
	C267.471924,43.063313 265.413513,45.953835 262.927307,49.417461 
z"/>
<path fill="#8C8C8C" opacity="1.000000" stroke="none" 
	d="
M129.508148,30.004845 
	C129.031342,27.994431 129.016434,25.960836 129.010391,23.494593 
	C140.983322,23.061945 152.947357,23.061945 165.490341,23.061945 
	C165.593628,25.305742 165.681351,27.211691 165.798096,29.747797 
	C160.997620,29.747797 156.448029,29.747797 151.313538,29.747797 
	C151.313538,43.726658 151.313538,57.109650 151.313538,70.820038 
	C148.499557,70.820038 146.266144,70.820038 143.412994,70.820038 
	C143.412994,57.354034 143.412994,43.966175 143.412994,29.981665 
	C138.535934,29.981665 134.252991,29.981665 129.508148,30.004845 
M145.938919,64.250244 
	C146.082565,65.760391 146.226212,67.270538 146.369858,68.780685 
	C146.980835,68.808006 147.591812,68.835327 148.202789,68.862640 
	C149.818634,64.787125 148.770798,60.294117 148.941879,56.023495 
	C149.128281,51.370899 148.984207,46.705059 148.984207,42.044994 
	C148.984207,37.452171 148.984207,32.859352 148.984207,27.434029 
	C154.132401,27.434029 158.562515,27.434029 162.992615,27.434029 
	C162.964233,26.972057 162.935837,26.510086 162.907455,26.048115 
	C152.633179,26.048115 142.358902,26.048115 132.084625,26.048115 
	C132.071686,26.587399 132.058731,27.126682 132.045776,27.665966 
	C136.510834,27.665966 140.975891,27.665966 145.938751,27.665966 
	C145.938751,40.091652 145.938751,51.698494 145.938919,64.250244 
z"/>
<path fill="#8D8D8D" opacity="1.000000" stroke="none" 
	d="
M175.531937,50.796249 
	C175.473770,57.668339 175.473770,64.104088 175.473770,70.846191 
	C172.626816,70.846191 170.568604,70.846191 168.186615,70.846191 
	C168.186615,58.687664 168.186615,46.669796 168.186615,33.774483 
	C170.955246,34.312775 173.279053,34.764580 175.602844,35.216381 
	C175.518814,35.740314 175.434769,36.264244 175.350723,36.788174 
	C180.048019,34.011299 184.797226,32.711494 189.856995,35.873718 
	C189.753006,40.306217 188.551971,42.586670 183.323074,41.738159 
	C178.415512,40.941788 176.447205,43.630981 175.531937,50.796249 
M173.325211,41.718117 
	C172.828262,40.092884 172.331314,38.467651 171.834366,36.842419 
	C171.496048,36.952236 171.157715,37.062054 170.819397,37.171875 
	C170.819397,47.702312 170.819397,58.232754 170.819397,70.241814 
	C172.163773,68.440804 172.800919,67.983444 172.826050,67.494621 
	C173.260452,59.042702 173.619553,50.586914 173.325211,41.718117 
z"/>
<path fill="#9D9D9D" opacity="1.000000" stroke="none" 
	d="
M198.902618,34.048325 
	C200.218155,34.792061 201.824677,35.521187 201.835190,36.272675 
	C201.995270,47.700592 201.946457,59.131432 201.946457,70.886757 
	C199.222000,70.886757 196.990433,70.886757 194.085480,70.886757 
	C194.085480,59.344269 193.991669,47.927486 194.273865,36.520004 
	C194.295105,35.660793 196.996002,34.867859 198.902618,34.048325 
M196.929871,60.406487 
	C197.041550,62.892036 197.153229,65.377586 197.264908,67.863129 
	C197.657211,67.831398 198.049500,67.799667 198.441803,67.767929 
	C198.441803,57.632614 198.441803,47.497295 198.441803,37.361977 
	C197.937790,37.355423 197.433762,37.348873 196.929749,37.342319 
	C196.929749,44.706238 196.929749,52.070152 196.929871,60.406487 
z"/>
<path fill="#969696" opacity="1.000000" stroke="none" 
	d="
M200.799042,21.266586 
	C201.519012,23.550976 202.415741,25.689390 202.131653,27.657351 
	C201.994720,28.605938 199.612640,29.880121 198.285233,29.836967 
	C196.746780,29.786953 194.479828,28.798309 193.933746,27.584959 
	C193.277588,26.127014 193.437119,23.167574 194.443878,22.366079 
	C195.891174,21.213863 198.421997,21.422668 200.799042,21.266586 
z"/>
<path fill="#F2ECF6" opacity="1.000000" stroke="none" 
	d="
M114.884857,42.029781 
	C115.947632,44.010159 117.010414,45.990536 118.556496,48.871510 
	C103.180389,41.689068 88.627174,46.338528 74.009895,48.215626 
	C63.371967,49.581722 52.661076,50.379631 41.191193,51.321381 
	C37.263752,50.775791 34.127838,50.339680 30.806959,49.868164 
	C30.621998,49.832760 30.246309,49.859489 30.246309,49.859489 
	C29.718172,49.072704 29.190037,48.285919 28.343433,47.024700 
	C32.175663,47.691723 35.702961,49.093002 39.050194,48.747879 
	C51.537201,47.460400 63.960930,45.567307 76.416718,43.966152 
	C84.961197,42.867779 93.519440,41.876518 102.938797,40.833569 
	C107.499001,41.229767 111.191925,41.629772 114.884857,42.029781 
z"/>
<path fill="#F4EFF7" opacity="1.000000" stroke="none" 
	d="
M77.616074,22.400986 
	C80.626366,24.316673 83.588287,25.901964 86.153244,27.977757 
	C89.357529,30.570940 92.067863,30.606791 94.776161,27.097961 
	C99.507973,30.303503 104.107979,33.419754 108.938980,37.110928 
	C107.155785,38.355442 105.141586,39.025028 103.127396,39.694614 
	C101.693497,37.918472 100.262939,36.139614 98.824989,34.366756 
	C95.890915,30.749313 94.977089,30.873468 92.844025,34.988579 
	C92.423584,35.799694 91.569130,36.385838 90.466331,37.046169 
	C90.017822,37.016605 89.837013,36.818432 89.837013,36.818432 
	C89.835831,36.403015 89.834656,35.987598 89.801178,35.050758 
	C89.609428,34.211529 89.362686,34.113762 89.028641,34.236031 
	C86.959557,32.566238 86.055115,28.894936 81.931099,30.711123 
	C81.129608,31.064093 79.166206,28.778708 77.129364,27.433451 
	C75.557060,27.504118 74.594139,27.851635 73.631226,28.199154 
	C73.586571,27.598949 73.541908,26.998745 73.400551,25.098989 
	C71.120033,29.169338 69.439651,32.168552 67.144089,35.144859 
	C66.360504,35.061264 66.192116,35.000572 66.023735,34.939884 
	C66.023735,34.939884 65.955505,34.455719 65.891159,33.988159 
	C65.636169,33.159565 65.375008,33.098118 65.043335,33.336266 
	C63.579399,33.346378 62.115463,33.356491 60.016174,33.329288 
	C58.917984,33.199425 58.455147,33.106876 57.992306,33.014328 
	C63.936440,30.246336 68.649544,25.997805 72.760490,20.962484 
	C73.121658,20.520098 74.392944,20.820755 75.645264,21.160212 
	C76.364494,21.689106 76.679970,21.834078 76.995438,21.979050 
	C77.127472,22.082129 77.259499,22.185205 77.616074,22.400986 
z"/>
<path fill="#F7F4FA" opacity="1.000000" stroke="none" 
	d="
M41.806068,30.275833 
	C42.101173,33.228760 42.396278,36.181686 42.435776,39.554535 
	C41.860420,39.978504 41.540657,39.979881 41.054089,39.660221 
	C40.121578,37.602200 39.355858,35.862541 38.039536,32.871948 
	C36.306305,35.925751 35.150333,37.962479 33.764740,39.877365 
	C33.339706,39.473366 33.144287,39.191204 32.948872,38.909046 
	C33.474705,35.738052 34.000538,32.567059 34.322960,30.622726 
	C32.371845,27.656424 30.326477,25.601559 29.688644,23.176491 
	C29.313686,21.750877 30.733963,19.077671 32.133541,18.140224 
	C34.300373,16.688858 38.053204,18.592161 39.572979,15.057036 
	C40.207363,16.203728 41.044025,17.286877 41.428856,18.511959 
	C42.010262,20.362844 42.276623,22.312693 42.469193,24.606833 
	C38.056808,26.404646 42.071976,28.524784 41.806068,30.275833 
z"/>
<path fill="#F0EAF5" opacity="1.000000" stroke="none" 
	d="
M53.603943,68.740547 
	C54.351624,70.644478 55.099304,72.548409 55.986492,74.807587 
	C50.374115,75.447426 50.291946,69.360939 46.888580,67.632469 
	C43.773510,69.099953 49.039169,74.844673 42.799576,74.860573 
	C42.228043,68.957657 42.034283,63.104015 41.916046,56.894905 
	C46.954590,55.875496 52.015621,54.528423 56.596466,59.226303 
	C56.897030,61.232510 56.901424,62.604801 56.905823,63.977097 
	C56.037651,64.783699 55.169487,65.590309 53.825642,66.668785 
	C52.817238,67.163696 52.284512,67.386734 51.751785,67.609772 
	C52.369171,67.986694 52.986557,68.363625 53.603943,68.740547 
M47.668026,64.132477 
	C49.442356,63.626209 51.242142,63.185040 52.952858,62.516087 
	C53.129948,62.446838 52.965511,60.427151 52.639332,60.323879 
	C50.622883,59.685467 48.514687,59.336842 45.474476,58.685841 
	C46.132858,61.256714 46.476234,62.597549 47.668026,64.132477 
z"/>
<path fill="#EFE9F4" opacity="1.000000" stroke="none" 
	d="
M39.931259,56.062973 
	C40.497948,60.985237 36.067291,58.097855 33.872036,60.167599 
	C33.872036,63.663300 34.013821,67.765923 33.775509,71.846359 
	C33.713470,72.908569 32.465599,73.901520 31.762383,74.926285 
	C31.224445,73.909470 30.268185,72.911110 30.222366,71.872581 
	C30.042192,67.788834 30.148573,63.692448 30.148573,59.508110 
	C27.828243,59.192020 26.085260,58.954578 24.342279,58.717140 
	C24.188883,58.324398 24.035484,57.931656 23.882088,57.538914 
	C24.982843,56.979435 26.083599,56.419960 28.025799,55.866776 
	C31.244337,55.816978 33.621437,55.760887 36.388046,55.783264 
	C37.831741,55.939167 38.885929,56.016602 39.940113,56.094036 
	C39.940113,56.094036 39.953724,56.050285 39.931259,56.062973 
z"/>
<path fill="#EFE9F4" opacity="1.000000" stroke="none" 
	d="
M41.220882,39.978584 
	C41.540657,39.979881 41.860420,39.978504 42.419273,39.977047 
	C45.363594,40.810272 48.068810,41.640900 50.926609,42.982933 
	C51.054443,43.666283 51.029701,43.838234 51.004955,44.010193 
	C43.807056,43.693188 36.531506,43.902344 29.441248,42.855957 
	C25.381739,42.256851 25.145161,40.011837 27.616173,36.663834 
	C29.625879,36.753471 28.323687,42.987690 32.674606,39.075771 
	C33.144287,39.191204 33.339706,39.473366 33.845604,40.262817 
	C36.674385,41.964375 39.284592,43.979008 41.220882,39.978584 
z"/>
<path fill="#8E6CAA" opacity="1.000000" stroke="none" 
	d="
M103.081131,39.939407 
	C105.141586,39.025028 107.155785,38.355442 109.203339,37.341274 
	C111.434845,37.946098 113.658760,38.844769 115.789070,39.927601 
	C115.990196,40.029835 115.602997,41.289509 115.186897,42.020798 
	C111.191925,41.629772 107.499001,41.229767 103.395203,40.754822 
	C102.984329,40.679890 103.034859,40.184200 103.081131,39.939407 
z"/>
<path fill="#8C68A8" opacity="1.000000" stroke="none" 
	d="
M35.998535,55.704796 
	C33.621437,55.760887 31.244337,55.816978 28.427446,55.789268 
	C28.514025,53.873314 29.040396,52.041157 29.906536,50.034248 
	C30.246309,49.859489 30.621998,49.832760 30.852901,50.214558 
	C32.722046,52.299171 34.360291,54.001984 35.998535,55.704796 
z"/>
<path fill="#8E6CAA" opacity="1.000000" stroke="none" 
	d="
M51.254005,44.289158 
	C51.029701,43.838234 51.054443,43.666283 51.140228,43.240955 
	C53.888760,42.617786 56.576248,42.247990 59.263741,41.878193 
	C59.355995,42.496025 59.448250,43.113857 59.540508,43.731689 
	C56.861355,44.010502 54.182205,44.289314 51.254005,44.289158 
z"/>
<path fill="#8E6CAA" opacity="1.000000" stroke="none" 
	d="
M63.874119,40.003342 
	C64.988693,40.147789 65.722099,40.295765 66.455498,40.443737 
	C66.536316,40.805523 66.617142,41.167309 66.697968,41.529095 
	C65.204399,41.956802 63.723774,42.453613 62.203434,42.738411 
	C61.972946,42.781586 61.557873,41.839367 61.228176,41.352936 
	C61.983097,40.904247 62.738018,40.455559 63.874119,40.003342 
z"/>
<path fill="#8E6CAA" opacity="1.000000" stroke="none" 
	d="
M57.837334,33.317459 
	C58.455147,33.106876 58.917984,33.199425 59.709213,33.427589 
	C59.258640,35.062263 58.479679,36.561325 57.700722,38.060383 
	C57.160301,37.799870 56.619877,37.539352 56.079456,37.278835 
	C56.613758,36.059422 57.148056,34.840004 57.837334,33.317459 
z"/>
<path fill="#8E6CAA" opacity="1.000000" stroke="none" 
	d="
M73.453522,28.420532 
	C74.594139,27.851635 75.557060,27.504118 76.801422,27.273487 
	C76.511055,28.467134 75.939240,29.543900 75.367416,30.620663 
	C74.670219,29.961081 73.973015,29.301497 73.453522,28.420532 
z"/>
<path fill="#9677B0" opacity="1.000000" stroke="none" 
	d="
M41.983047,29.912418 
	C42.071976,28.524784 38.056808,26.404646 42.606674,24.945169 
	C42.687893,26.447773 42.423958,27.998388 41.983047,29.912418 
z"/>
<path fill="#8E6CAA" opacity="1.000000" stroke="none" 
	d="
M51.196770,37.547943 
	C50.707275,38.567776 50.025146,39.355793 49.343018,40.143814 
	C48.971630,39.719044 48.600246,39.294273 48.228859,38.869503 
	C49.153946,38.351715 50.079037,37.833923 51.196770,37.547943 
z"/>
<path fill="#9677B0" opacity="1.000000" stroke="none" 
	d="
M46.429695,22.950325 
	C46.444988,23.950077 46.174671,25.005028 45.904354,26.059978 
	C45.470524,25.902327 45.036694,25.744675 44.602863,25.587025 
	C45.116604,24.726522 45.630344,23.866022 46.429695,22.950325 
z"/>
<path fill="#9677B0" opacity="1.000000" stroke="none" 
	d="
M45.156979,31.083073 
	C45.710209,30.833887 46.186066,30.864199 46.661919,30.894508 
	C46.504589,31.302919 46.347260,31.711330 46.189926,32.119740 
	C45.819817,31.867352 45.449711,31.614962 45.156979,31.083073 
z"/>
<path fill="#8E6CAA" opacity="1.000000" stroke="none" 
	d="
M89.009171,38.154339 
	C88.694664,38.635204 88.380157,39.116066 88.065643,39.596931 
	C87.921799,39.152336 87.777954,38.707737 88.096832,38.144844 
	C88.559563,38.026550 89.009171,38.154339 89.009171,38.154339 
z"/>
<path fill="#8C68A8" opacity="1.000000" stroke="none" 
	d="
M26.159449,45.302025 
	C26.497738,45.583633 26.617168,45.833817 26.736599,46.084000 
	C26.495682,46.155930 26.254766,46.227859 26.013851,46.299789 
	C25.989431,45.956730 25.965010,45.613663 26.159449,45.302025 
z"/>
<path fill="#8E6CAA" opacity="1.000000" stroke="none" 
	d="
M46.354614,35.262779 
	C46.369419,35.008656 46.505314,34.870018 46.641209,34.731380 
	C46.586037,34.947010 46.530865,35.162636 46.354614,35.262779 
z"/>
<path fill="#F4EFF7" opacity="1.000000" stroke="none" 
	d="
M89.246445,38.041969 
	C89.009171,38.154339 88.559563,38.026550 88.327667,37.999031 
	C88.486732,37.613255 88.877693,37.255001 89.552841,36.857590 
	C89.837013,36.818432 90.017822,37.016605 90.112488,37.116058 
	C89.966019,37.453545 89.724869,37.691574 89.246445,38.041969 
z"/>
<path fill="#8E6CAA" opacity="1.000000" stroke="none" 
	d="
M66.023880,35.182220 
	C66.192116,35.000572 66.360504,35.061264 66.771439,35.237312 
	C66.771736,35.665630 66.529480,35.978596 66.287224,36.291565 
	C66.199493,36.002560 66.111763,35.713554 66.023880,35.182220 
z"/>
<path fill="#8C68A8" opacity="1.000000" stroke="none" 
	d="
M76.863777,21.754154 
	C76.679970,21.834078 76.364494,21.689106 75.936371,21.299595 
	C76.126518,21.213123 76.429314,21.371193 76.863777,21.754154 
z"/>
<path fill="#8C68A8" opacity="1.000000" stroke="none" 
	d="
M24.550962,42.467049 
	C24.584715,42.523396 24.517210,42.410706 24.550962,42.467049 
z"/>
<path fill="#8E6CAA" opacity="1.000000" stroke="none" 
	d="
M65.142220,33.478191 
	C65.375008,33.098118 65.636169,33.159565 65.825081,33.752785 
	C65.599525,33.910812 65.405441,33.789192 65.142220,33.478191 
z"/>
<path fill="#8E6CAA" opacity="1.000000" stroke="none" 
	d="
M53.464123,36.447678 
	C53.520405,36.413883 53.407841,36.481472 53.464123,36.447678 
z"/>
<path fill="#8E6CAA" opacity="1.000000" stroke="none" 
	d="
M89.106796,34.387154 
	C89.362686,34.113762 89.609428,34.211529 89.738846,34.745193 
	C89.494431,34.869381 89.319817,34.728458 89.106796,34.387154 
z"/>
<path fill="#F0EAF4" opacity="1.000000" stroke="none" 
	d="
M78.165512,56.250454 
	C81.731369,57.452927 83.232262,59.795910 82.573608,62.930870 
	C81.450806,68.275063 76.739357,68.509857 72.543518,69.319893 
	C72.431015,69.442398 72.314102,69.561302 72.207001,69.688461 
	C70.913872,71.223724 73.523521,75.444534 69.562576,74.514793 
	C68.515381,74.268990 68.358650,69.366165 68.164131,66.575867 
	C67.935333,63.294022 68.110512,59.984020 68.110512,56.097874 
	C71.599014,56.097874 74.685745,56.097874 78.165512,56.250454 
M72.108551,59.819710 
	C72.108551,61.368431 72.108551,62.917156 72.108551,64.613388 
	C73.543732,64.714104 74.710129,65.157547 75.417175,64.767761 
	C76.750351,64.032806 77.818962,62.817940 78.997543,61.802551 
	C77.889389,60.890816 76.887299,59.763031 75.633682,59.147591 
	C74.869812,58.772583 73.718414,59.186951 72.108551,59.819710 
z"/>
<path fill="#F6F0F9" opacity="1.000000" stroke="none" 
	d="
M89.221680,55.958794 
	C92.964714,55.958527 96.244186,55.958527 101.292984,55.958527 
	C97.161636,61.681759 93.891312,66.212204 90.232704,71.280540 
	C93.928902,71.799568 96.956779,72.224747 99.984650,72.649925 
	C99.918648,73.237541 99.852646,73.825165 99.786644,74.412781 
	C95.001877,74.412781 90.217102,74.412781 83.747192,74.412781 
	C87.618980,69.136642 91.024750,64.495552 95.016235,59.056293 
	C92.433296,59.056293 90.519897,59.249283 88.670464,58.988548 
	C87.434631,58.814312 86.289780,57.994724 85.104218,57.463940 
	C86.322182,56.962311 87.540146,56.460682 89.221680,55.958794 
z"/>
<path fill="#F1EBF5" opacity="1.000000" stroke="none" 
	d="
M111.175049,62.199295 
	C113.484200,59.771999 113.500565,54.767025 119.263481,56.756668 
	C117.379868,59.272800 115.331436,61.260231 114.229401,63.678886 
	C112.972755,66.436867 112.648178,69.607025 111.726852,72.537804 
	C111.444916,73.434677 110.593628,74.206085 109.842201,74.846085 
	C109.724937,74.945961 108.187622,73.935165 108.245934,73.602600 
	C109.483208,66.546715 104.098923,62.059292 101.476074,56.517208 
	C101.824188,56.165157 102.172295,55.813107 102.520401,55.461056 
	C104.007957,56.750565 105.478279,58.060692 106.988350,59.323284 
	C108.281677,60.404675 109.620544,61.431602 111.175049,62.199295 
z"/>
<path fill="#FEFEFE" opacity="1.000000" stroke="none" 
	d="
M63.769661,57.055325 
	C63.796501,62.377254 63.823341,67.699188 63.633884,73.591553 
	C63.208202,74.343300 63.052078,74.562538 62.949211,74.819717 
	C62.064838,73.894295 60.579166,73.064774 60.413288,72.024757 
	C59.983524,69.330261 60.135143,66.543037 60.135330,63.098053 
	C60.185146,61.262321 60.154305,60.121365 60.123466,58.980408 
	C60.833118,58.004871 61.542770,57.029331 62.698883,56.282379 
	C63.303883,56.749268 63.511986,56.930721 63.769661,57.055325 
z"/>
<path fill="#8865A6" opacity="1.000000" stroke="none" 
	d="
M36.388046,55.783264 
	C34.360291,54.001984 32.722046,52.299171 31.037861,50.249962 
	C34.127838,50.339680 37.263752,50.775791 40.756645,51.335743 
	C40.760826,52.743252 40.408031,54.026917 39.997677,55.702309 
	C38.885929,56.016602 37.831741,55.939167 36.388046,55.783264 
z"/>
<path fill="#8E6CAA" opacity="1.000000" stroke="none" 
	d="
M59.851471,59.074654 
	C60.154305,60.121365 60.185146,61.262321 60.080139,62.698696 
	C59.179337,63.230961 58.414375,63.467812 57.277618,63.840881 
	C56.901424,62.604801 56.897030,61.232510 56.881248,59.447830 
	C57.773064,59.079926 58.676270,59.124413 59.851471,59.074654 
z"/>
<path fill="#8E6CAA" opacity="1.000000" stroke="none" 
	d="
M53.729294,68.284355 
	C52.986557,68.363625 52.369171,67.986694 51.751785,67.609772 
	C52.284512,67.386734 52.817238,67.163696 53.655357,66.914291 
	C53.925385,67.201340 53.890015,67.514755 53.729294,68.284355 
z"/>
<path fill="#DBCFE4" opacity="1.000000" stroke="none" 
	d="
M63.785416,56.800133 
	C63.511986,56.930721 63.303883,56.749268 63.052036,56.324196 
	C63.239536,56.273266 63.520355,56.409103 63.785416,56.800133 
z"/>
<path fill="#DBCFE4" opacity="1.000000" stroke="none" 
	d="
M63.199959,74.816635 
	C63.052078,74.562538 63.208202,74.343300 63.589073,74.053253 
	C63.657269,74.234192 63.553989,74.523872 63.199959,74.816635 
z"/>
<path fill="#FCFCFC" opacity="1.000000" stroke="none" 
	d="
M237.923218,60.676376 
	C237.065262,61.036507 236.080444,61.232487 235.369003,61.782219 
	C228.473297,67.110596 223.602859,66.066956 219.353729,58.106598 
	C219.036453,57.861351 219.105072,57.886871 219.105072,57.886871 
	C219.427246,53.996983 219.749420,50.107098 220.330261,45.637939 
	C220.725479,44.705891 220.862030,44.353115 220.998581,44.000340 
	C224.897766,39.741859 229.304504,40.074486 234.422577,42.830330 
	C235.255463,43.236565 235.615982,43.380981 235.919220,43.951759 
	C236.299637,48.403767 236.708130,52.432926 237.191223,56.453117 
	C237.355728,57.822083 237.707993,59.168491 237.951950,60.546772 
	C237.929428,60.568340 237.923218,60.676376 237.923218,60.676376 
z"/>
<path fill="#F3F3F3" opacity="1.000000" stroke="none" 
	d="
M235.976501,43.525398 
	C235.615982,43.380981 235.255463,43.236565 234.780029,43.092957 
	C236.531555,39.824688 233.899246,39.225441 231.855133,39.000420 
	C228.804382,38.664589 225.689301,38.913258 222.416397,38.913258 
	C228.944946,33.505745 238.321930,36.003536 241.346039,44.078762 
	C242.476456,47.097286 242.891968,50.571407 242.819199,53.819557 
	C242.530624,66.703140 234.533966,72.031219 222.435608,67.317726 
	C222.676010,66.875511 222.842361,66.837524 223.008698,66.799530 
	C228.584137,66.934464 234.608521,68.376450 237.884354,61.189842 
	C237.923218,60.676376 237.929428,60.568340 238.288391,60.288940 
	C238.797073,55.669250 239.177704,51.316662 238.947708,46.996582 
	C238.883484,45.790211 237.016495,44.679817 235.976501,43.525398 
z"/>
<path fill="#F5F5F5" opacity="1.000000" stroke="none" 
	d="
M218.622620,57.826035 
	C219.105072,57.886871 219.036453,57.861351 219.049545,57.845318 
	C218.309784,64.639694 217.574570,71.452126 216.790741,78.258972 
	C216.611694,79.813820 216.264893,81.349358 215.995300,82.893784 
	C215.508072,82.821190 215.020828,82.748589 214.533600,82.675987 
	C214.533600,67.517998 214.533600,52.360001 214.533600,36.232468 
	C216.364410,38.624084 217.696259,40.363895 219.514221,42.059395 
	C220.000351,42.015091 219.862228,42.173496 219.862228,42.173496 
	C216.630753,47.077221 215.564423,52.220081 218.622620,57.826035 
z"/>
<path fill="#919191" opacity="1.000000" stroke="none" 
	d="
M222.980179,66.561867 
	C222.842361,66.837524 222.676010,66.875511 222.260345,66.971245 
	C222.129730,66.585464 222.248459,66.141930 222.367172,65.698395 
	C222.561996,65.906998 222.756836,66.115601 222.980179,66.561867 
z"/>
<path fill="#919191" opacity="1.000000" stroke="none" 
	d="
M220.757736,44.165977 
	C220.862030,44.353115 220.725479,44.705891 220.360016,45.236916 
	C220.259705,45.053978 220.388290,44.692799 220.757736,44.165977 
z"/>
<path fill="#919191" opacity="1.000000" stroke="none" 
	d="
M219.917969,42.078545 
	C219.947983,42.093380 220.060349,42.044758 220.017487,42.084816 
	C219.862228,42.173496 220.000351,42.015091 219.917969,42.078545 
z"/>
<path fill="#F2F2F2" opacity="1.000000" stroke="none" 
	d="
M287.872070,48.135635 
	C290.143250,53.978092 292.297607,59.451576 294.451996,64.925056 
	C295.015472,64.973045 295.578949,65.021027 296.142426,65.069008 
	C299.839050,55.621815 303.535645,46.174618 307.232269,36.727421 
	C307.659607,36.865681 308.086945,37.003941 308.514282,37.142204 
	C308.514282,37.981342 308.757324,38.913132 308.478027,39.645802 
	C303.922424,51.595959 299.299072,63.520283 294.694824,75.451904 
	C292.777893,80.419487 289.390686,83.447487 283.859924,83.444725 
	C282.568604,83.444084 281.277588,82.957779 280.102570,81.499474 
	C281.126617,81.398750 282.149963,81.218658 283.174805,81.210014 
	C290.462341,81.148567 295.229980,74.276253 292.606201,67.484734 
	C289.015045,58.189323 285.350494,48.922276 281.734955,39.636253 
	C281.460663,38.931843 281.325745,38.173172 281.630096,37.189415 
	C285.979431,39.362797 285.574280,44.345539 287.872070,48.135635 
z"/>
<path fill="#EFEFEF" opacity="1.000000" stroke="none" 
	d="
M263.141205,49.130909 
	C265.413513,45.953835 267.471924,43.063313 269.530334,40.172791 
	C269.325195,39.679001 269.120087,39.185211 268.914948,38.691422 
	C263.209656,38.691422 257.504364,38.691422 251.799057,38.691422 
	C251.812546,38.212669 251.826035,37.733913 251.839523,37.255161 
	C258.775452,37.255161 265.711395,37.255161 273.821350,37.255161 
	C268.162079,47.840851 259.888947,55.836605 253.433548,66.529968 
	C260.407257,66.529968 266.525452,66.529968 272.643646,66.529968 
	C272.653625,67.074593 272.663605,67.619225 272.673553,68.163849 
	C265.421875,68.163849 258.170166,68.163849 249.641312,68.163849 
	C253.419144,60.970230 258.639130,55.492615 263.141205,49.130909 
z"/>
<path fill="#EFEFEF" opacity="1.000000" stroke="none" 
	d="
M145.938843,63.777786 
	C145.938751,51.698494 145.938751,40.091652 145.938751,27.665966 
	C140.975891,27.665966 136.510834,27.665966 132.045776,27.665966 
	C132.058731,27.126682 132.071686,26.587399 132.084625,26.048115 
	C142.358902,26.048115 152.633179,26.048115 162.907455,26.048115 
	C162.935837,26.510086 162.964233,26.972057 162.992615,27.434029 
	C158.562515,27.434029 154.132401,27.434029 148.984207,27.434029 
	C148.984207,32.859352 148.984207,37.452171 148.984207,42.044994 
	C148.984207,46.705059 149.128281,51.370899 148.941879,56.023495 
	C148.770798,60.294117 149.818634,64.787125 148.202789,68.862640 
	C147.591812,68.835327 146.980835,68.808006 146.369858,68.780685 
	C146.226212,67.270538 146.082565,65.760391 145.938843,63.777786 
z"/>
<path fill="#F1F1F1" opacity="1.000000" stroke="none" 
	d="
M173.660156,41.925045 
	C173.619553,50.586914 173.260452,59.042702 172.826050,67.494621 
	C172.800919,67.983444 172.163773,68.440804 170.819397,70.241814 
	C170.819397,58.232754 170.819397,47.702312 170.819397,37.171875 
	C171.157715,37.062054 171.496048,36.952236 171.834366,36.842419 
	C172.331314,38.467651 172.828262,40.092884 173.660156,41.925045 
z"/>
<path fill="#FEFEFE" opacity="1.000000" stroke="none" 
	d="
M196.929810,59.920280 
	C196.929749,52.070152 196.929749,44.706238 196.929749,37.342319 
	C197.433762,37.348873 197.937790,37.355423 198.441803,37.361977 
	C198.441803,47.497295 198.441803,57.632614 198.441803,67.767929 
	C198.049500,67.799667 197.657211,67.831398 197.264908,67.863129 
	C197.153229,65.377586 197.041550,62.892036 196.929810,59.920280 
z"/>
<path fill="#9677B0" opacity="1.000000" stroke="none" 
	d="
M41.054089,39.660221 
	C39.284592,43.979008 36.674385,41.964375 34.075226,40.384659 
	C35.150333,37.962479 36.306305,35.925751 38.039536,32.871948 
	C39.355858,35.862541 40.121578,37.602200 41.054089,39.660221 
z"/>
<path fill="#8E6CAA" opacity="1.000000" stroke="none" 
	d="
M47.243820,64.035431 
	C46.476234,62.597549 46.132858,61.256714 45.474476,58.685841 
	C48.514687,59.336842 50.622883,59.685467 52.639332,60.323879 
	C52.965511,60.427151 53.129948,62.446838 52.952858,62.516087 
	C51.242142,63.185040 49.442356,63.626209 47.243820,64.035431 
z"/>
<path fill="#9070AB" opacity="1.000000" stroke="none" 
	d="
M72.424820,59.533234 
	C73.718414,59.186951 74.869812,58.772583 75.633682,59.147591 
	C76.887299,59.763031 77.889389,60.890816 78.997543,61.802551 
	C77.818962,62.817940 76.750351,64.032806 75.417175,64.767761 
	C74.710129,65.157547 73.543732,64.714104 72.108551,64.613388 
	C72.108551,62.917156 72.108551,61.368431 72.424820,59.533234 
z"/>
<path fill="#8D8D8D" opacity="1.000000" stroke="none" 
	d="
M235.919220,43.951759 
	C237.016495,44.679817 238.883484,45.790211 238.947708,46.996582 
	C239.177704,51.316662 238.797073,55.669250 238.310913,60.267372 
	C237.707993,59.168491 237.355728,57.822083 237.191223,56.453117 
	C236.708130,52.432926 236.299637,48.403767 235.919220,43.951759 
z"/>
</svg>