<?xml version="1.0" standalone="no"?>
<!DOCTYPE svg PUBLIC "-//W3C//DTD SVG 20010904//EN"
 "http://www.w3.org/TR/2001/REC-SVG-20010904/DTD/svg10.dtd">
<svg version="1.0" xmlns="http://www.w3.org/2000/svg"
 width="300.000000pt" height="83.000000pt" viewBox="0 0 300.000000 83.000000"
 preserveAspectRatio="xMidYMid meet">
<metadata>
Created by potrace 1.10, written by Peter Selinger 2001-2011
</metadata>
<g transform="translate(0.000000,83.000000) scale(0.100000,-0.100000)"
fill="#000000" stroke="none">
<path d="M1184 723 c3 -60 6 -121 5 -138 0 -16 -2 -155 -5 -307 -4 -245 -3
-278 11 -278 13 0 15 49 15 415 0 373 -2 415 -16 415 -14 0 -15 -13 -10 -107z"/>
<path d="M316 706 c-41 -13 -76 -47 -76 -75 0 -9 9 -35 20 -56 23 -46 20 -62
-12 -67 -14 -2 -26 -13 -32 -30 -11 -32 1 -46 69 -78 62 -30 159 -26 374 16
267 53 389 48 450 -17 15 -16 21 -19 21 -8 0 26 -23 45 -83 69 -45 18 -61 20
-67 11 -5 -9 -18 0 -43 29 -35 41 -67 49 -67 17 0 -7 -11 -24 -25 -37 -18 -17
-25 -19 -25 -9 0 8 5 20 12 27 9 9 5 17 -16 37 -28 26 -42 33 -31 15 13 -21
-20 -9 -48 18 l-30 27 6 -25 c4 -14 7 -38 7 -53 0 -26 1 -27 16 -13 8 9 19 16
24 16 21 0 40 -14 40 -30 0 -13 -14 -20 -62 -30 -35 -7 -74 -13 -88 -15 -14
-2 -79 -10 -145 -19 -123 -17 -185 -15 -243 10 -26 10 -33 19 -30 36 4 30 21
33 33 6 15 -34 28 -25 42 29 16 63 16 63 -7 63 -21 0 -24 4 -34 52 -5 22 -1
31 19 44 21 13 28 14 41 4 13 -11 16 -10 21 8 7 28 39 29 46 2 3 -11 1 -20 -4
-20 -12 0 -12 -37 0 -44 5 -4 16 -3 25 0 18 7 13 44 -12 82 -16 24 -29 26 -86
8z"/>
<path d="M904 695 c-9 -15 -14 -37 -12 -55 4 -24 0 -31 -24 -41 -25 -10 -33
-8 -66 13 -110 73 -114 73 -184 10 -29 -26 -75 -62 -102 -80 -57 -37 -67 -32
-64 35 4 84 -9 51 -16 -39 -3 -50 -5 -93 -3 -94 2 -2 43 1 91 6 61 7 98 17
118 31 16 12 35 18 43 15 16 -6 18 22 6 79 l-6 29 -18 -27 c-9 -14 -17 -35
-17 -46 0 -11 -9 -25 -19 -31 -26 -13 -52 -13 -28 1 9 5 17 17 17 25 0 14 -9
12 -60 -18 -37 -21 -96 -48 -107 -48 -26 0 -12 19 21 30 19 6 40 18 48 27 7 9
32 25 56 35 23 10 42 22 42 26 0 4 16 24 35 44 35 38 35 38 55 18 10 -10 37
-28 59 -39 22 -12 42 -25 46 -31 10 -16 53 -11 64 8 9 15 13 14 43 -14 40 -39
137 -94 164 -94 12 0 -6 16 -46 42 -36 24 -73 52 -83 63 -18 19 -18 20 15 29
l33 10 -52 9 c-29 5 -53 14 -53 18 0 5 5 9 11 9 6 0 9 6 6 14 -3 8 0 22 8 33
13 17 14 16 20 -10 4 -15 12 -27 17 -27 6 0 17 -8 25 -17 13 -16 13 -16 8 7
-6 23 -51 70 -67 70 -4 0 -15 -11 -24 -25z"/>
<path d="M1838 639 c-36 -21 -16 -79 27 -79 42 0 59 44 29 74 -18 18 -32 20
-56 5z m50 -36 c5 -17 -26 -29 -40 -15 -6 6 -7 15 -3 22 9 14 37 9 43 -7z"/>
<path d="M1220 590 l0 -30 65 0 65 0 0 -195 0 -195 35 0 35 0 0 195 0 195 70
0 70 0 0 30 0 30 -170 0 -170 0 0 -30z m315 0 c4 -6 -20 -10 -64 -10 l-71 0 0
-195 c0 -167 -2 -195 -15 -195 -13 0 -15 28 -15 196 l0 195 -62 -1 c-80 -2
-80 -2 -73 10 4 6 65 10 150 10 85 0 146 -4 150 -10z"/>
<path d="M370 591 c0 -6 4 -11 9 -11 5 0 8 -6 7 -12 -2 -25 15 -118 22 -118 4
0 8 32 9 70 1 39 -2 70 -7 70 -4 0 -15 3 -24 6 -9 3 -16 1 -16 -5z"/>
<path d="M327 488 l-16 -33 31 -8 c39 -10 42 -6 28 37 -14 44 -23 45 -43 4z"/>
<path d="M1580 345 l0 -175 34 0 34 0 4 120 c4 139 12 155 80 155 36 0 42 3
51 28 11 34 9 36 -36 44 -22 3 -47 0 -66 -10 -26 -13 -31 -13 -31 -1 0 9 -11
14 -35 14 l-35 0 0 -175z m164 149 c27 -10 18 -22 -21 -26 -21 -3 -47 -9 -58
-13 -20 -8 -20 -8 -1 13 10 11 28 23 40 25 11 2 22 5 23 6 1 0 8 -2 17 -5z
m-114 -29 c0 -14 4 -25 10 -25 6 0 6 -9 0 -26 -6 -14 -10 -70 -10 -125 0 -81
-3 -99 -15 -99 -13 0 -15 23 -15 150 0 127 2 150 15 150 9 0 15 -9 15 -25z"/>
<path d="M1830 345 l0 -175 35 0 35 0 0 175 0 175 -35 0 -35 0 0 -175z m50 -5
c0 -127 -2 -150 -15 -150 -13 0 -15 23 -15 150 0 127 2 150 15 150 13 0 15
-23 15 -150z"/>
<path d="M1992 278 l3 -241 33 -1 32 -1 0 81 0 82 37 -19 c47 -24 77 -24 131
1 54 25 81 79 82 163 0 65 -18 112 -56 148 -21 20 -36 24 -89 24 -48 0 -68 -5
-84 -19 -21 -19 -21 -19 -21 2 0 18 -6 22 -35 22 l-35 0 2 -242z m227 208 c48
-26 66 -63 66 -141 0 -77 -15 -111 -60 -141 -36 -24 -100 -21 -135 5 -16 11
-34 21 -40 21 -6 0 -10 -33 -10 -85 0 -61 -3 -85 -12 -85 -10 0 -13 50 -13
215 0 165 3 215 13 215 6 0 12 -9 12 -19 0 -29 15 -33 36 -10 36 40 94 50 143
25z"/>
<path d="M2103 464 c-57 -28 -79 -115 -49 -188 18 -44 52 -66 99 -66 51 0 76
15 93 55 31 74 9 172 -45 199 -37 20 -57 20 -98 0z m97 -24 c47 -25 49 -154 3
-190 -57 -45 -123 -14 -137 65 -8 43 9 111 32 124 22 13 78 14 102 1z"/>
<path d="M2350 485 l0 -35 80 0 79 0 -84 -111 c-61 -80 -85 -120 -85 -140 l0
-29 130 0 130 0 0 30 0 30 -85 0 c-78 0 -102 8 -74 26 6 3 44 51 85 106 53 71
74 108 74 129 l0 29 -125 0 -125 0 0 -35z m227 -10 c-4 -8 -45 -65 -92 -128
-47 -63 -85 -119 -85 -125 0 -8 28 -12 90 -12 53 0 90 -4 90 -10 0 -6 -43 -10
-110 -10 -85 0 -110 3 -110 13 0 8 40 67 90 133 49 65 90 122 90 127 0 4 -38
7 -85 7 -50 0 -85 4 -85 10 0 6 42 10 106 10 89 0 105 -2 101 -15z"/>
<path d="M2631 468 c121 -307 119 -299 103 -330 -17 -33 -49 -48 -87 -41 -22
4 -27 1 -33 -21 -8 -33 -5 -36 43 -43 65 -9 110 17 138 79 29 64 155 388 155
400 0 4 -15 8 -34 8 -38 0 -29 16 -103 -183 -14 -37 -27 -66 -29 -64 -3 3 -17
39 -76 195 -19 51 -21 52 -59 52 l-39 0 21 -52z m94 -108 c27 -71 54 -130 60
-130 6 0 33 58 60 130 30 78 55 130 64 130 7 0 11 -6 8 -12 -3 -7 -34 -88 -70
-180 -36 -92 -73 -180 -81 -196 -17 -33 -61 -55 -100 -50 -36 4 -33 24 3 20
35 -4 76 28 90 71 10 29 5 48 -49 185 -33 85 -60 155 -60 158 0 2 6 4 13 4 7
0 34 -58 62 -130z"/>
<path d="M210 414 c0 -3 14 -19 31 -35 l30 -28 -35 -15 c-43 -18 -48 -48 -14
-76 17 -13 24 -32 28 -75 6 -69 24 -87 64 -65 17 9 26 22 26 37 0 14 4 21 10
18 6 -4 8 -10 5 -14 -2 -5 6 -18 20 -31 19 -18 30 -21 52 -15 15 5 33 7 38 5
6 -2 51 -5 100 -6 94 -2 137 9 128 32 -5 14 44 40 55 29 3 -2 11 0 19 7 12 9
13 7 8 -13 -10 -41 14 -61 76 -64 96 -4 136 28 86 71 -28 24 -28 48 0 58 20 8
42 -21 43 -54 0 -33 26 -70 49 -70 23 0 41 19 41 44 0 12 13 46 30 76 35 66
37 86 9 101 -18 9 -27 7 -49 -10 -27 -20 -29 -20 -52 -2 -28 21 -184 29 -217
11 -16 -8 -27 -7 -47 3 -40 21 -13 32 107 47 92 11 114 10 178 -4 41 -9 76
-15 78 -12 3 2 -8 13 -23 23 -47 31 -211 30 -380 -1 -158 -29 -332 -41 -385
-26 -20 6 -53 21 -73 35 -20 13 -36 22 -36 19z m160 -116 c0 -13 -8 -18 -30
-18 l-30 0 0 -75 c0 -70 -1 -75 -21 -75 -21 0 -21 4 -17 75 l5 75 -29 0 c-20
0 -28 5 -28 18 0 15 10 17 75 17 65 0 75 -2 75 -17z m228 -76 c3 -87 2 -92
-18 -92 -19 0 -20 6 -20 96 0 86 2 95 18 92 14 -3 17 -17 20 -96z m342 75 c0
-7 -23 -38 -50 -70 -28 -32 -50 -61 -50 -64 0 -3 23 -3 50 -1 44 4 50 3 50
-13 0 -17 -9 -19 -75 -19 -55 0 -75 3 -75 13 0 7 22 41 50 75 l50 62 -50 0
c-35 0 -50 4 -50 13 0 21 4 22 79 19 46 -2 71 -8 71 -15z m65 -20 c11 -20 22
-37 25 -37 3 0 15 18 28 40 14 25 30 40 42 40 26 0 26 -2 -15 -63 -25 -36 -35
-63 -35 -89 0 -31 -4 -38 -20 -38 -17 0 -20 7 -20 39 0 28 -9 54 -30 84 -16
25 -30 50 -30 57 0 24 36 3 55 -33z m-486 19 c19 -23 9 -70 -16 -81 -29 -12
-29 -16 2 -45 31 -29 32 -40 2 -40 -15 0 -30 12 -47 40 -14 22 -28 40 -31 40
-4 0 -5 -18 -2 -40 5 -36 3 -40 -16 -40 -20 0 -21 5 -21 90 l0 90 59 0 c39 0
63 -5 70 -14z m235 1 c11 -8 19 -26 19 -42 0 -35 -26 -55 -70 -55 -31 0 -33
-2 -33 -35 0 -28 -4 -35 -20 -35 -19 0 -20 7 -20 90 l0 90 53 0 c29 0 61 -6
71 -13z"/>
<path d="M425 258 c1 -18 8 -23 31 -23 22 0 30 5 32 23 3 19 -1 22 -31 22 -29
0 -33 -3 -32 -22z"/>
<path d="M670 255 c0 -24 3 -26 33 -23 24 2 32 8 32 23 0 15 -8 21 -32 23 -30
3 -33 1 -33 -23z"/>
</g>
</svg>
